<?xml version="1.0" standalone="no"?>
<!DOCTYPE svg PUBLIC "-//W3C//DTD SVG 20010904//EN"
 "http://www.w3.org/TR/2001/REC-SVG-20010904/DTD/svg10.dtd">
<svg version="1.0" xmlns="http://www.w3.org/2000/svg"
 width="512.000000pt" height="512.000000pt" viewBox="0 0 512.000000 512.000000"
 preserveAspectRatio="xMidYMid meet">

<g transform="translate(0.000000,512.000000) scale(0.100000,-0.100000)"
fill="#000000" stroke="none">
<path d="M968 5110 c-52 -16 -98 -52 -126 -98 l-27 -47 0 -371 c0 -352 1 -373
19 -393 13 -14 31 -21 56 -21 70 0 69 -7 72 394 l3 358 24 19 c23 18 54 19
1065 19 926 0 1044 -2 1064 -16 l22 -15 0 -2165 0 -2164 -340 0 -340 0 0 440
c0 484 0 484 -60 515 -43 22 -657 22 -700 0 -60 -31 -60 -31 -60 -515 l0 -440
-340 0 -340 0 0 1664 0 1665 -22 15 c-32 23 -81 20 -104 -5 -18 -20 -19 -58
-22 -1280 l-2 -1259 -40 0 c-61 0 -140 -20 -200 -50 -58 -29 -136 -105 -163
-157 -12 -23 -25 -32 -55 -36 -111 -18 -238 -123 -295 -244 -28 -61 -32 -78
-32 -158 0 -60 6 -107 18 -142 l17 -53 -27 -42 c-27 -41 -28 -45 -31 -210 -3
-157 -2 -172 19 -214 13 -28 37 -56 62 -72 l41 -27 2436 0 2436 0 41 27 c25
16 49 44 62 72 21 42 22 57 19 214 -3 165 -4 169 -31 210 l-27 42 17 53 c12
35 18 82 18 142 0 80 -4 97 -32 158 -57 121 -184 226 -295 243 -31 5 -42 14
-62 48 -45 78 -132 144 -228 175 l-38 13 0 502 c0 494 0 504 -21 530 -26 33
-79 36 -109 6 -20 -20 -20 -33 -20 -925 l0 -905 -500 0 -500 0 0 135 0 134
348 3 347 3 34 24 c56 40 61 66 61 296 0 230 -5 256 -61 296 l-34 24 -347 3
-348 3 0 134 0 135 338 0 c371 0 381 2 426 63 20 26 21 44 24 250 3 250 -2
272 -69 312 -32 19 -55 20 -376 23 l-343 3 0 135 0 134 344 0 c340 0 343 0
377 23 63 42 69 67 69 300 0 228 -3 243 -60 291 l-32 26 -349 0 -349 0 0 155
0 155 480 0 c467 0 481 -1 500 -20 19 -19 20 -33 20 -479 0 -431 1 -460 18
-482 27 -33 78 -30 109 5 l23 27 0 450 c0 310 -4 465 -12 497 -14 58 -76 122
-134 140 -30 9 -171 12 -523 12 l-481 0 0 570 c0 545 -1 572 -19 609 -26 50
-81 97 -128 110 -46 13 -2133 14 -2175 1z m2962 -2070 l0 -170 -320 0 -320 0
0 170 0 170 320 0 320 0 0 -170z m0 -915 l0 -175 -320 0 -320 0 0 168 c0 93 3
172 7 175 3 4 147 7 320 7 l313 0 0 -175z m-1620 -1105 l0 -410 -260 0 -260 0
0 410 0 410 260 0 260 0 0 -410z m1620 185 l0 -175 -320 0 -320 0 0 175 0 175
320 0 320 0 0 -175z m-3120 -270 l0 -325 -301 0 -300 0 -15 37 c-72 171 38
355 227 379 66 8 74 14 105 80 44 93 136 152 242 153 l42 1 0 -325z m3693 279
c39 -26 97 -98 97 -119 0 -7 9 -24 20 -37 15 -19 32 -27 75 -32 191 -22 303
-207 231 -379 l-15 -37 -235 0 -236 0 0 315 c0 248 3 315 13 315 7 0 29 -12
50 -26z m455 -766 c17 -17 17 -269 0 -286 -17 -17 -4779 -17 -4796 0 -17 17
-17 269 0 286 17 17 4779 17 4796 0z"/>
<path d="M1230 4722 c-58 -29 -70 -66 -70 -225 0 -147 9 -185 50 -222 20 -18
39 -20 182 -23 181 -4 207 2 239 54 19 31 20 46 17 198 -3 182 -7 194 -75 222
-51 22 -298 19 -343 -4z m270 -227 l0 -95 -95 0 -95 0 0 88 c0 49 3 92 7 95 3
4 46 7 95 7 l88 0 0 -95z"/>
<path d="M1872 4724 c-55 -28 -62 -53 -62 -236 0 -234 4 -238 240 -238 233 0
240 7 240 245 0 235 -4 239 -230 243 -129 2 -161 0 -188 -14z m268 -229 l0
-95 -90 0 -90 0 0 95 0 95 90 0 90 0 0 -95z"/>
<path d="M2524 4726 c-17 -8 -40 -26 -52 -41 -20 -26 -22 -39 -22 -187 0 -242
6 -248 242 -248 165 0 187 5 222 53 19 26 21 42 21 191 0 182 -7 205 -70 232
-46 19 -297 19 -341 0z m264 -233 l3 -93 -96 0 -95 0 0 95 0 96 93 -3 92 -3 3
-92z"/>
<path d="M1230 3932 c-58 -29 -70 -66 -70 -225 0 -231 16 -247 243 -247 237 0
247 10 247 242 0 169 -5 189 -59 225 -32 21 -45 23 -180 23 -119 0 -152 -3
-181 -18z m270 -227 l0 -95 -95 0 -95 0 0 95 0 95 95 0 95 0 0 -95z"/>
<path d="M1875 3936 c-59 -26 -65 -47 -65 -233 0 -239 4 -243 240 -243 233 0
240 7 240 245 0 236 -9 245 -242 245 -96 -1 -153 -5 -173 -14z m265 -231 l0
-95 -90 0 -90 0 0 95 0 95 90 0 90 0 0 -95z"/>
<path d="M2524 3940 c-11 -4 -33 -22 -47 -40 -27 -31 -27 -33 -27 -191 0 -243
6 -249 243 -249 144 0 156 2 188 23 51 34 61 77 57 242 -5 213 -18 225 -250
224 -79 0 -152 -4 -164 -9z m264 -237 l3 -93 -96 0 -95 0 0 95 0 96 93 -3 92
-3 3 -92z"/>
<path d="M1222 3140 c-52 -32 -62 -70 -62 -225 0 -228 16 -245 243 -245 240 0
250 10 245 257 l-3 163 -33 32 -32 33 -163 3 c-149 2 -165 1 -195 -18z m278
-225 l0 -95 -95 0 -95 0 0 95 0 95 95 0 95 0 0 -95z"/>
<path d="M1875 3146 c-59 -26 -65 -47 -65 -233 0 -239 4 -243 235 -243 237 0
245 8 245 245 0 236 -9 245 -242 245 -96 -1 -153 -5 -173 -14z m265 -231 l0
-95 -90 0 -90 0 0 95 0 95 90 0 90 0 0 -95z"/>
<path d="M2514 3144 c-56 -28 -64 -54 -64 -229 0 -237 8 -245 248 -245 139 0
151 2 183 23 51 34 61 77 57 242 -5 213 -18 225 -250 225 -107 0 -151 -4 -174
-16z m276 -229 l0 -95 -95 0 -95 0 0 95 0 95 95 0 95 0 0 -95z"/>
<path d="M1222 2350 c-52 -32 -62 -70 -62 -225 0 -155 10 -193 62 -225 30 -19
46 -20 195 -18 l163 3 32 33 33 32 0 175 0 175 -33 32 -32 33 -163 3 c-149 2
-165 1 -195 -18z m278 -225 l0 -95 -95 0 -95 0 0 95 0 95 95 0 95 0 0 -95z"/>
<path d="M1863 2350 c-17 -10 -37 -28 -42 -39 -7 -12 -11 -88 -11 -186 0 -238
6 -245 241 -245 229 0 239 10 239 245 0 238 -8 245 -247 245 -129 0 -152 -3
-180 -20z m277 -225 l0 -95 -90 0 -90 0 0 95 0 95 90 0 90 0 0 -95z"/>
<path d="M2512 2353 c-55 -27 -62 -53 -62 -228 0 -236 9 -245 248 -245 139 0
151 2 183 23 48 32 58 71 58 222 0 151 -10 190 -58 222 -32 21 -44 23 -185 23
-119 0 -158 -4 -184 -17z m278 -228 l0 -95 -95 0 -95 0 0 95 0 95 95 0 95 0 0
-95z"/>
</g>
</svg>
